# xmcd
#
# Track frame offsets:
#	150
#	14107
#	32205
#	46510
#	57090
#	70300
#	88260
#	102372
#	113702
#	130915
#	145005
#	156545
#	177020
#	194560
#	209532
#	222890
#	235455
#	251517
#	271782
#	290962
#
# Disc length: 4024 seconds
#
# Revision: 4292738490
# Processed by: cddbd v1.5.2PL0 Copyright (c) Steve Scherf et al.
# Submitted via: EZCDAudioConverter 8.3.2.1
#
DISCID=360fb614
DTITLE=INGER NORDSTRÖM and RHINESTONE BAND - 20 COUNTRYLÅTAR
DYEAR=1996
DGENRE=Country
TTITLE0=I SAW YOU LOOK AT HER (USA-SINGEL)
TTITLE1=I HOPE YOU TURN ME DOWN
TTITLE2=CLOUDS ON A SUMMER SKY
TTITLE3=DON'T YOU WORRY BOUT A THING
TTITLE4=TRYIN' TO START A FIRE (USA-SINGEL)
TTITLE5=WHO'LL BE THE FIRST TO FALL
TTITLE6=CIMARRON COUNTRY
TTITLE7=FALLING FAST (USA-SINGEL)
TTITLE8=I DON'T LOVE YOU IS A LIE
TTITLE9=SYLVIE MARIE (USA-SINGEL)
TTITLE10=WHEN A LOVE GOES WRONG
TTITLE11=THE DRESS
TTITLE12=A LOT TO LEARN ABOUT LOVE
TTITLE13=BRIDGES
TTITLE14=I'LL LET YOU MAKE IT UP TO ME (USA-SINGEL)
TTITLE15=THAT'S ALL IT TOOK
TTITLE16=DIDN'T WE MAKE BETTER STRANGERS
TTITLE17=EVERY CIRCUS NEEDS A CLOWN
TTITLE18=ALL I'M LOOKING FOR
TTITLE19=DON'T BE MEAN TO ME
EXTD=
EXTT0=
EXTT1=
EXTT2=
EXTT3=
EXTT4=
EXTT5=
EXTT6=
EXTT7=
EXTT8=
EXTT9=
EXTT10=
EXTT11=
EXTT12=
EXTT13=
EXTT14=
EXTT15=
EXTT16=
EXTT17=
EXTT18=
EXTT19=
PLAYORDER=
